<svg xmlns="http://www.w3.org/2000/svg" viewBox="0 0 224.71 54.4"><defs><style>.cls-1{fill:#1d1d1b;}</style></defs><title>logo</title><g id="Layer_2" data-name="Layer 2"><g id="Layer_1-2" data-name="Layer 1"><path class="cls-1" d="M160.62,52.77H115.7a3.13,3.13,0,0,1-3.13-3.13V4.75a3.13,3.13,0,0,1,5.35-2.21l20.24,20.24L158.4,2.54a3.13,3.13,0,0,1,5.35,2.21V49.64A3.13,3.13,0,0,1,160.62,52.77Zm-41.79-6.26h38.66V12.31L140.37,29.42a3.11,3.11,0,0,1-4.42,0L118.83,12.31Z"/><path class="cls-1" d="M48,52.78H3.13A3.13,3.13,0,0,1,0,49.65V4.74A3.13,3.13,0,0,1,3.13,1.61H48A3.13,3.13,0,0,1,50.23,7L30,27.2,50.23,47.44A3.13,3.13,0,0,1,48,52.78ZM6.26,46.52h34.2L23.35,29.41a3.13,3.13,0,0,1,0-4.43L40.46,7.87H6.26Z"/><path class="cls-1" d="M102.23,10.32,105.59,7a3.13,3.13,0,0,0-4.43-4.43L97.81,5.89A27.18,27.18,0,0,0,59.63,44.08l-3.37,3.36a3.13,3.13,0,0,0,4.43,4.43l3.36-3.37a27.17,27.17,0,0,0,38.18-38.18ZM60,27.2A20.9,20.9,0,0,1,93.33,10.37l-4.41,4.41a14.65,14.65,0,0,0-8-2.37A14.77,14.77,0,0,0,68.51,35.19L64.1,39.6A20.8,20.8,0,0,1,60,27.2Zm12.42,0a8.53,8.53,0,1,1,8.52,8.52A8.54,8.54,0,0,1,72.41,27.2Zm8.52,20.94A20.78,20.78,0,0,1,68.53,44l4.41-4.41A14.76,14.76,0,0,0,93.35,19.2l4.41-4.41A20.9,20.9,0,0,1,80.93,48.14Z"/><path class="cls-1" d="M173.69,4.24c0-2,1-3,2.95-3s3,1,3,3V6.16h-2.06V4.24c0-.64-.29-1-.89-1h0c-.6,0-.89.32-.89,1v1.3c0,.63.64,1.4,1.92,2.32a4,4,0,0,1,1.93,3.29V13c0,2-1,3-2.95,3s-3-1-3-3V11h2.06V13c0,.65.3,1,.9,1s.89-.32.89-1V11.33c0-.69-.64-1.49-1.92-2.41a4,4,0,0,1-1.93-3.34Z"/><path class="cls-1" d="M183,1.48h3c1.83,0,2.74,1,2.74,3V6.62a2.7,2.7,0,0,1-2,2.84,4.75,4.75,0,0,1-1.37.15h-.33v6.11H183Zm2.06,2V7.58h.47a2,2,0,0,0,.59-.06.88.88,0,0,0,.56-.9V4.47c0-.64-.3-1-.9-1Z"/><path class="cls-1" d="M197.68,13c0,2-1,3-3,3s-2.95-1-2.95-3V4.24c0-2,1-3,2.95-3s3,1,3,3Zm-2.06-8.71c0-.64-.29-1-.89-1h0c-.59,0-.88.32-.88,1V13c0,.65.3,1,.89,1s.9-.32.9-1Z"/><path class="cls-1" d="M201.08,1.48h3c1.83,0,2.74,1,2.74,3V6.62a2.38,2.38,0,0,1-1.62,2.47l2.31,6.63h-2.25L203.4,9.46l-.26,0v6.23h-2.06Zm2.06,2V7.58h.47a2,2,0,0,0,.59-.06.88.88,0,0,0,.56-.9V4.47c0-.64-.3-1-.9-1Z"/><path class="cls-1" d="M215.48,1.48v2h-1.92V15.72h-2.05V3.5h-1.93v-2Z"/><path class="cls-1" d="M218.3,4.24c0-2,1-3,2.95-3s3,1,3,3V6.16h-2.06V4.24c0-.64-.29-1-.89-1h0c-.59,0-.89.32-.89,1v1.3c0,.63.64,1.4,1.92,2.32a4,4,0,0,1,1.93,3.29V13c0,2-1,3-3,3s-3-1-3-3V11h2.06V13c0,.65.3,1,.9,1s.89-.32.89-1V11.33c0-.69-.64-1.49-1.92-2.41a4,4,0,0,1-1.93-3.34Z"/><path class="cls-1" d="M179.6,31.54c0,2-1,3-3,3s-2.95-1-2.95-3V22.82c0-2,1-3,2.95-3s3,1,3,3v1.92h-2.06V22.82c0-.64-.29-1-.89-1h0c-.6,0-.89.32-.89,1v8.72c0,.64.3,1,.89,1s.9-.32.9-1V29.62h2.06Z"/><path class="cls-1" d="M189,31.54c0,2-1,3-3,3s-3-1-3-3V22.82c0-2,1-3,3-3s3,1,3,3ZM187,22.82c0-.64-.3-1-.89-1h0c-.59,0-.88.32-.88,1v8.72c0,.64.3,1,.89,1s.9-.32.9-1Z"/><path class="cls-1" d="M192.79,20.06h5.33v2h-3.27v4.08h2.81v2h-2.81V34.3h-2.06Z"/><path class="cls-1" d="M201.51,20.06h5.33v2h-3.27v4.08h2.81v2h-2.81V34.3h-2.06Z"/><path class="cls-1" d="M210.23,20.06h5.33v2h-3.27v4.08h2.81v2h-2.81v4.08h3.27v2h-5.33Z"/><path class="cls-1" d="M219.1,20.06h5.33v2h-3.28v4.08H224v2h-2.82v4.08h3.28v2H219.1Z"/><path class="cls-1" d="M177.61,44.52v-1h2.06v1H181v2h-1.31v3.34c0,2-1,3-3,3s-2.92-1-2.92-3V47.51a2,2,0,0,1,1.12-2,2,2,0,0,1-1.12-2V41.41q0-3,2.94-3c2,0,3,1,3,3V42h-2.06v-.61a.9.9,0,1,0-1.79,0v2.14a.89.89,0,0,0,.56.91,1.37,1.37,0,0,0,.47.06Zm-.91,6.34c.61,0,.91-.33.91-1V46.55h-.76a1.37,1.37,0,0,0-.47.06.88.88,0,0,0-.56.9v2.38c0,.64.28,1,.84,1Z"/><path class="cls-1" d="M183.93,38.64h3c1.82,0,2.73,1,2.73,3v2.14A2.38,2.38,0,0,1,188,46.26l2.3,6.62H188.1l-1.86-6.26-.26,0v6.22h-2Zm2,2v4.08h.48a1.86,1.86,0,0,0,.58-.06.88.88,0,0,0,.56-.91V41.64c0-.65-.3-1-.89-1Z"/><path class="cls-1" d="M193,38.64h5.33v2h-3.27v4.08h2.81v2h-2.81v4.08h3.27v2H193Z"/><path class="cls-1" d="M201.36,52.88V38.64h2.06V50.86h3.27v2Z"/><path class="cls-1" d="M215.16,47.83l.67,5.05h-2.08l-.4-3h-2.1l-.4,3h-2.07l.67-5,1.45-9.21h2.81Zm-2.08,0-.78-5.92-.78,5.92Z"/><path class="cls-1" d="M220,38.64l1.33,4,1.33-4h2.07l-2.37,7.12,2.37,7.12h-2.07l-1.33-4-1.33,4h-2.07l2.37-7.12-2.37-7.12Z"/></g></g></svg>