<?xml version="1.0" encoding="UTF-8" standalone="no"?>
<!-- Created with Inkscape (http://www.inkscape.org/) -->

<svg
   width="201.25307mm"
   height="122.87189mm"
   viewBox="0 0 201.25307 122.87189"
   version="1.1"
   id="svg5"
   xml:space="preserve"
   sodipodi:docname="Orejanos_green.svg"
   inkscape:version="1.2.2 (732a01da63, 2022-12-09)"
   xmlns:inkscape="http://www.inkscape.org/namespaces/inkscape"
   xmlns:sodipodi="http://sodipodi.sourceforge.net/DTD/sodipodi-0.dtd"
   xmlns="http://www.w3.org/2000/svg"
   xmlns:svg="http://www.w3.org/2000/svg"><sodipodi:namedview
     id="namedview7"
     pagecolor="#ffffff"
     bordercolor="#666666"
     borderopacity="1.0"
     inkscape:showpageshadow="2"
     inkscape:pageopacity="0.0"
     inkscape:pagecheckerboard="0"
     inkscape:deskcolor="#d1d1d1"
     inkscape:document-units="mm"
     showgrid="false"
     inkscape:zoom="0.425"
     inkscape:cx="644.70588"
     inkscape:cy="155.29412"
     inkscape:window-width="1920"
     inkscape:window-height="1017"
     inkscape:window-x="1912"
     inkscape:window-y="-8"
     inkscape:window-maximized="1"
     inkscape:current-layer="layer1" /><defs
     id="defs2"><rect
       x="219.37567"
       y="146.01303"
       width="365.3887"
       height="61.966503"
       id="rect20896" /><rect
       x="219.37567"
       y="146.01303"
       width="365.3887"
       height="61.966503"
       id="rect20896-7" /><rect
       x="219.37567"
       y="146.01303"
       width="365.3887"
       height="61.966503"
       id="rect20896-2" /><rect
       x="219.37567"
       y="146.01303"
       width="365.3887"
       height="61.966503"
       id="rect20896-7-1" /><rect
       x="219.37567"
       y="146.01303"
       width="365.3887"
       height="61.966503"
       id="rect20896-0-1-7" /><rect
       x="219.37567"
       y="146.01303"
       width="365.3887"
       height="61.966503"
       id="rect20896-7-20-2-1" /></defs><g
     inkscape:label="Capa 1"
     inkscape:groupmode="layer"
     id="layer1"
     transform="translate(-4.0955364,-75.164408)"><g
       id="g4504"
       transform="matrix(1.7553194,0,0,1.7553194,-1514.8713,-145.125)"><path
         style="fill:#cbff18;fill-opacity:1;stroke:none;stroke-width:0.264583px;stroke-linecap:butt;stroke-linejoin:miter;stroke-opacity:1"
         d="m 865.35068,171.78696 c 0.20705,-13.69187 11.18669,-23.08911 22.644,-23.12437 l 0.0316,5.20992 c -8.73129,0.1177 -17.58035,8.09149 -17.50151,17.86734 z"
         id="path179-3-9-8"
         sodipodi:nodetypes="ccccc" /><path
         style="fill:#cbff18;fill-opacity:1;stroke:none;stroke-width:0.264583px;stroke-linecap:butt;stroke-linejoin:miter;stroke-opacity:1"
         d="m 956.92736,148.7533 c 13.69186,0.20705 23.03426,11.28276 23.06952,22.74007 l -5.18839,0.0286 c -0.11769,-8.73128 -8.03461,-17.96784 -17.81046,-17.889 z"
         id="path179-9-6-0-0"
         sodipodi:nodetypes="ccccc" /><path
         style="fill:#cbff18;fill-opacity:1;stroke:none;stroke-width:0.264583px;stroke-linecap:butt;stroke-linejoin:miter;stroke-opacity:1"
         d="m 891.93168,183.63915 c 0,0 -7.61459,-2.20823 -10.12849,-5.85761 -0.73941,-1.33097 -1.20191,-2.24721 -1.50089,-3.56171 -0.79656,-3.50207 -0.14524,-7.2454 1.68553,-9.7196 1.1561,-1.56243 2.73011,-3.04895 4.61396,-3.90502 1.75483,-0.79743 3.78475,-1.01041 5.832,-1.21299 3.63089,-0.2871 7.20582,1.10697 9.96312,2.95915 1.73736,1.16705 3.1501,2.31712 4.04767,3.96882 1.33895,2.48931 2.59258,5.20569 2.50958,8.96126 l -5.27725,0.0217 c -0.25892,-3.23868 -0.45099,-5.0947 -1.68104,-6.71593 -1.02845,-1.35553 -2.85571,-2.72161 -5.55788,-3.33126 -1.75658,-0.3933 -3.37358,-0.49815 -4.85491,-0.22334 -2.98131,0.55308 -5.0401,2.58921 -5.2637,4.45876 -0.28376,1.9601 0.009,4.03733 1.34308,5.41018 2.36321,2.43241 6.58266,3.45993 6.58266,3.45993 z"
         id="path179-9-4-9-5-7-2-2-8-7"
         sodipodi:nodetypes="ccssscscccscscscc" /><path
         style="fill:#1efc05;fill-opacity:1;stroke:none;stroke-width:0.264583px;stroke-linecap:butt;stroke-linejoin:miter;stroke-opacity:1"
         d="m 943.39786,130.90411 h 5.65355 l -20.023,40.70558 -3.48636,-3.6277 z"
         id="path1232-2-8-2"
         sodipodi:nodetypes="ccccc" /><path
         style="fill:#1efc05;fill-opacity:1;stroke:none;stroke-width:0.264583px;stroke-linecap:butt;stroke-linejoin:miter;stroke-opacity:1"
         d="m 979.99938,171.48976 c 0.25934,13.72517 -10.62274,23.95123 -23.11278,23.85323 l -0.0619,-5.20505 c 8.73128,-0.11769 18.06148,-8.84396 17.98264,-18.61981 z"
         id="path179-9-4-6-0-0"
         sodipodi:nodetypes="ccccc" /><path
         style="fill:#1efc05;fill-opacity:1;stroke:none;stroke-width:0.264583px;stroke-linecap:butt;stroke-linejoin:miter;stroke-opacity:1"
         d="m 888.55213,195.4553 c -13.72517,0.25934 -23.28736,-11.1847 -23.18936,-23.67474 l 5.14675,-0.0619 c 0.11769,8.73128 8.21965,18.57139 17.9955,18.49255 z"
         id="path179-9-4-9-4-6-5"
         sodipodi:nodetypes="ccccc" /><path
         style="fill:#1efc05;fill-opacity:1;stroke:none;stroke-width:0.264583px;stroke-linecap:butt;stroke-linejoin:miter;stroke-opacity:1"
         d="m 907.79103,131.04141 5.32041,0.0316 -18.89033,47.41546 c 0,0 -1.60125,-0.59995 -2.35999,-0.91584 -0.75873,-0.3159 -2.19241,-1.02665 -2.19241,-1.02665 z"
         id="path1232-3-6-1-0"
         sodipodi:nodetypes="ccczcc" /><path
         style="fill:#23f5b6;fill-opacity:1;stroke:none;stroke-width:0.264583px;stroke-linecap:butt;stroke-linejoin:miter;stroke-opacity:1"
         d="m 908.94721,175.26025 c 0.21223,8.26006 -7.43215,20.51919 -20.39332,20.23274 l -0.0786,-5.28833 c 8.02459,0.0237 15.16815,-6.09703 15.27776,-14.93062 z"
         id="path179-9-4-9-5-4-9-4"
         sodipodi:nodetypes="ccccc" /><path
         style="fill:#23f5b6;fill-opacity:1;stroke:none;stroke-width:0.264583px;stroke-linecap:butt;stroke-linejoin:miter;stroke-opacity:1"
         d="m 956.95749,195.37798 c -10.50224,0.12874 -20.31689,-8.68887 -27.92497,-16.52786 -0.46805,-0.48225 -4.48091,-5.16432 -11.18147,-11.00596 -4.21984,-3.67891 -9.06532,-7.93746 -14.88797,-10.70409 -4.46389,-2.12103 -9.97347,-3.24058 -14.96169,-3.26153 l -0.0269,-5.22249 c 5.87469,0.0209 11.36633,1.50991 16.28353,3.70247 7.48099,3.33575 13.69432,8.36184 18.3921,12.81159 5.24566,4.9687 8.7124,8.89377 9.20604,9.3911 2.82794,2.84905 6.27239,6.36044 10.10957,9.34795 4.49268,3.49787 9.53609,6.26524 14.94461,6.22468 z"
         id="path179-9-4-9-5-6-42-1-0"
         sodipodi:nodetypes="csssccsssscc" /><path
         style="fill:#23f5b6;fill-opacity:1;stroke:none;stroke-width:0.264583px;stroke-linecap:butt;stroke-linejoin:miter;stroke-opacity:1"
         d="m 935.07767,130.8529 17.14912,0.1104 1.97874,-5.27666 -16.96066,-0.18845 z"
         id="path16828-0-6-9"
         sodipodi:nodetypes="ccccc" /><path
         style="fill:#23f5b6;fill-opacity:1;stroke:none;stroke-width:0.264583px;stroke-linecap:butt;stroke-linejoin:miter;stroke-opacity:1"
         d="m 893.9861,135.81971 c 0,0 -0.66669,2.48974 -2.38672,3.60368 -1.59454,1.03266 -4.25811,0.88114 -5.77775,-0.71293 -1.4674,-1.53927 -1.24836,-4.27805 -0.30762,-5.77081 1.0844,-1.72072 3.04014,-2.09243 3.04014,-2.09243 l 5.06163,0.0558 19.4476,0.21441 1.97874,-5.27665 -26.68974,-0.0475 c 0,0 -0.94133,-0.0265 -2.10123,0.38587 -1.27321,0.45271 -2.82428,1.4102 -4.02553,2.94104 -2.68943,3.42733 -3.61873,9.69841 0.97647,13.53792 3.68403,3.07819 8.48431,2.9354 11.23365,1.02588 1.73419,-1.20445 3.07023,-2.86316 3.76996,-4.50559 0.75572,-1.77387 0.80451,-3.48954 0.80451,-3.48954 z"
         id="path16828-9-4-9-7"
         sodipodi:nodetypes="cssscccccssssscc" /><path
         style="fill:#cbff18;fill-opacity:1;stroke:none;stroke-width:0.264583px;stroke-linecap:butt;stroke-linejoin:miter;stroke-opacity:1"
         d="m 966.16827,169.74559 -2.8256,4.74048 -53.83393,-34.4183 1.83958,-4.7704 z"
         id="path1232-9-2-8-1"
         sodipodi:nodetypes="ccccc" /><path
         style="fill:#23f5b6;fill-opacity:1;stroke:none;stroke-width:0.264583px;stroke-linecap:butt;stroke-linejoin:miter;stroke-opacity:1"
         d="m 963.36758,174.49227 c 0,0 -3.54907,4.51707 -10.33334,4.66339 -2.99932,0.0647 -4.79811,-0.54652 -6.36951,-1.25067 -2.12611,-0.95272 -3.6146,-2.24161 -5.02257,-3.81276 -2.41693,-2.69704 -3.01936,-5.19121 -3.27865,-8.16287 -0.30492,-3.4947 1.42424,-7.21088 3.76069,-10.30707 1.46197,-1.93736 3.66964,-3.56149 5.94028,-4.78282 2.48931,-1.33896 5.13502,-2.18035 8.89059,-2.09735 l 0.0453,4.88857 c -2.68645,-0.008 -5.48862,0.8753 -7.51117,2.13242 -1.56,0.96963 -2.70626,2.3467 -3.55833,3.45223 -1.53958,1.99755 -2.37443,3.88279 -2.4364,6.19786 -0.0309,1.15472 0.3184,2.82758 1.01714,4.12065 1.21367,2.24598 3.50262,3.9673 6.15874,4.35182 5.43298,0.78652 8.21339,-2.27219 8.21339,-2.27219 z"
         id="path179-9-4-9-5-7-0-7-7"
         sodipodi:nodetypes="cssssssccssssscc" /></g></g></svg>
